<svg width="861" height="861" viewBox="0 0 861 861" fill="none" xmlns="http://www.w3.org/2000/svg">
<mask id="mask0_62_2123" style="mask-type:luminance" maskUnits="userSpaceOnUse" x="201" y="182" width="460" height="496">
<path d="M201.047 182.245L203.939 587.229L660.272 677.627L656.656 273.366L201.047 182.245Z" fill="white"/>
</mask>
<g mask="url(#mask0_62_2123)">
<path d="M280.599 347.131C279.876 340.622 279.153 332.667 280.599 323.989C283.492 303.74 287.831 308.079 286.385 323.989C284.938 334.113 290.001 349.3 294.34 360.871L301.572 366.657C303.741 355.809 310.973 332.667 321.821 314.587C337.731 289.999 347.133 292.169 329.776 319.65C318.205 339.899 312.42 363.041 310.25 373.889L313.866 376.058L329.053 388.352L381.122 340.622C409.327 316.757 401.372 333.39 384.015 346.408C370.998 356.532 350.749 385.46 342.07 397.031L391.247 431.744C399.925 425.958 420.175 411.494 441.87 401.37C472.244 386.906 465.012 397.031 440.424 411.494C422.344 422.342 407.88 433.913 402.095 439.699L471.521 490.322C480.199 485.983 508.403 472.242 529.376 471.519C549.625 470.073 547.455 473.689 527.206 478.028C509.85 482.367 486.708 493.938 481.645 497.554L550.348 547.454L433.192 470.796C429.576 475.858 426.683 484.536 425.96 495.384C424.514 512.741 421.621 517.08 420.175 496.831C420.174 482.367 422.344 470.073 423.79 464.287L361.596 425.235C358.704 429.574 353.641 438.976 352.195 457.778C349.302 483.813 342.793 485.983 344.24 455.609C345.686 435.36 347.856 423.065 349.302 417.28L317.482 398.477C308.804 407.155 285.662 431.744 276.983 451.993C266.136 478.751 263.966 480.92 272.644 450.547C279.876 427.405 296.509 400.647 303.741 390.522L292.17 383.29C285.662 386.906 274.091 392.692 266.136 403.539C252.395 420.173 246.61 417.28 261.796 397.754C269.752 386.906 276.26 381.844 282.046 378.951C258.181 369.55 236.485 379.674 228.53 386.183C170.675 428.128 223.468 537.329 297.233 585.059C354.364 621.942 349.302 502.616 375.337 522.865C402.095 543.838 320.375 624.112 439.701 632.067C493.216 636.406 451.995 566.257 474.414 561.194C508.403 553.239 469.351 631.343 522.867 634.236C548.179 634.959 567.705 634.236 600.971 629.897C635.684 625.558 658.826 618.326 658.826 618.326C658.826 618.326 635.684 585.059 637.131 554.686C639.3 523.589 657.38 483.813 626.283 457.055C572.767 409.325 517.082 456.332 514.189 427.405C511.296 405.709 566.258 397.031 595.186 405.709C627.729 415.11 604.587 339.899 554.687 330.497C488.154 316.034 451.272 380.397 429.576 373.166C400.648 363.041 452.718 326.882 480.922 316.034C509.85 305.909 463.566 235.037 390.524 219.85C296.509 201.047 216.959 271.919 280.599 347.131Z" fill="#FCBB6C" fill-opacity="0.4"/>
</g>
</svg>
