<svg width="260" height="366" viewBox="0 0 260 366" fill="none" xmlns="http://www.w3.org/2000/svg">
<path d="M294.674 109.185C298.663 109.793 303.512 110.631 308.446 112.875C320.034 117.825 316.76 119.716 307.523 116.318C301.729 113.843 291.884 114.434 284.306 115.171L279.71 118.552C285.82 121.573 298.438 129.566 307.467 138.905C319.563 152.293 316.772 157.542 303.186 142.831C292.981 132.717 280.132 125.584 274.023 122.563L272.155 124.369L262.418 131.446L282.519 170.043C292.223 190.632 283.594 183.246 278.615 170.842C274.665 161.481 260.68 144.818 255.178 137.809L226.679 161.538C228.738 167.625 234.117 181.981 236.682 196.506C240.446 216.888 235.574 210.97 230.888 194.031C227.315 181.543 222.736 171.09 220.216 166.725L179.021 199.967C180.219 205.824 183.898 224.798 180.985 237.394C178.617 249.675 176.811 247.807 177.457 235.065C177.643 224.045 174.447 208.428 173.103 204.839L132.453 237.767L196.752 180.272C194.316 177.313 189.613 174.208 183.273 172.048C173.175 168.419 171.054 166.006 183.335 168.374C191.942 170.68 198.912 173.932 202.124 175.715L235.28 144.931C233.16 142.518 228.372 138.006 217.413 134.147C202.382 128.275 202.129 124.056 219.973 129.759C231.792 133.849 238.762 137.1 241.975 138.884L258.238 122.946C254.457 116.398 243.515 98.7059 232.849 90.3128C218.655 79.5908 217.71 77.9538 234.402 87.9613C247.02 95.9549 260.291 110.12 265.163 116.038L271.311 110.305C270.197 105.855 268.599 98.0471 263.413 91.5835C255.705 80.7544 258.349 77.7728 267.547 89.9238C272.734 96.3875 274.709 101.068 275.508 104.972C284.908 92.2693 282.342 77.7442 279.737 71.9724C264.002 30.8556 190.6 44.8593 150.434 81.145C119.376 109.262 191.192 125.277 174.991 137.541C158.244 150.12 123.505 88.6895 99.7442 158.43C88.6289 189.585 136.946 176.24 136.384 190.388C135.698 211.883 95.4467 176.19 85.1921 207.575C80.7257 222.522 78.0426 234.257 75.3203 254.746C72.3674 276.095 72.9809 291.019 72.9809 291.019C72.9809 291.019 96.4674 282.552 114.312 288.256C132.471 294.506 153.258 311.607 174.14 297.368C211.077 273.133 191.983 232.5 209.658 235.391C223.03 237.129 219.431 271.22 209.654 287.05C198.87 304.917 247.317 303.138 260.868 274.943C280.084 237.656 247.664 205.445 255.427 193.687C266.064 178.088 279.279 214.839 281.238 233.353C282.65 252.181 332.205 235.939 352.889 194.895C379.07 141.946 349.579 83.3063 294.674 109.185Z" fill="#D0CAA2" fill-opacity="0.43"/>
</svg>
