<svg width="284" height="436" viewBox="0 0 284 436" fill="none" xmlns="http://www.w3.org/2000/svg">
<path d="M-90.2963 325.511C-95.3525 324.741 -101.5 323.678 -107.754 320.833C-122.445 314.558 -118.295 312.161 -106.585 316.468C-99.2392 319.606 -86.7593 318.857 -77.1533 317.923L-71.3271 313.636C-79.0719 309.807 -95.0678 299.674 -106.514 287.836C-121.847 270.863 -118.31 264.21 -101.087 282.858C-88.1505 295.68 -71.8621 304.722 -64.1174 308.552L-61.7498 306.262L-49.4055 297.291L-74.8871 248.363C-87.1894 222.262 -76.2496 231.625 -69.938 247.35C-64.9315 259.217 -47.2023 280.339 -40.2276 289.225L-4.10062 259.144C-6.71088 251.428 -13.5289 233.229 -16.7813 214.815C-21.5528 188.978 -15.3768 196.481 -9.43585 217.953C-4.90705 233.785 0.898213 247.035 4.0932 252.569L56.3155 210.428C54.7963 203.004 50.1318 178.95 53.8255 162.983C56.8275 147.415 59.1167 149.782 58.297 165.935C58.062 179.905 62.1131 199.702 63.8176 204.252L115.348 162.511L33.8379 235.395C36.9259 239.147 42.8878 243.083 50.925 245.821C63.7259 250.421 66.4145 253.48 50.8466 250.478C39.9355 247.554 31.0996 243.433 27.0275 241.172L-15.004 280.196C-12.3154 283.255 -6.24649 288.975 7.6456 293.866C26.7009 301.311 27.0219 306.66 4.40093 299.429C-10.5823 294.245 -19.4182 290.123 -23.4902 287.863L-44.1067 308.066C-39.3142 316.367 -25.4431 338.795 -11.9217 349.435C6.07115 363.027 7.26927 365.102 -13.8899 352.416C-29.8858 342.282 -46.7092 324.326 -52.8852 316.824L-60.6797 324.091C-59.2675 329.732 -57.2419 339.63 -50.6666 347.824C-40.8963 361.552 -44.2479 365.331 -55.9081 349.928C-62.4835 341.734 -64.9868 335.801 -65.9995 330.852C-77.9157 346.955 -74.6634 365.368 -71.3614 372.684C-51.4136 424.807 41.6364 407.055 92.5536 361.057C131.925 325.413 40.8853 305.112 61.4234 289.565C82.6532 273.619 126.691 351.493 156.812 263.084C170.903 223.59 109.652 240.507 110.365 222.571C111.234 195.322 162.26 240.57 175.26 200.784C180.922 181.835 184.323 166.959 187.774 140.986C191.517 113.923 190.74 95.0031 190.74 95.0031C190.74 95.0031 160.966 105.737 138.345 98.5058C115.325 90.5834 88.974 68.9045 62.5027 86.9547C15.6786 117.678 39.8838 169.187 17.4768 165.522C0.525466 163.319 5.08856 120.103 17.4825 100.035C31.1529 77.3851 -30.2627 79.64 -47.4414 115.383C-71.8012 162.65 -30.702 203.484 -40.543 218.389C-54.028 238.164 -70.7808 191.575 -73.263 168.106C-75.0536 144.237 -137.874 164.827 -164.095 216.858C-197.283 283.98 -159.898 358.317 -90.2963 325.511Z" fill="#D0CAA2" fill-opacity="0.43"/>
</svg>
