<svg width="502" height="845" viewBox="0 0 502 845" fill="none" xmlns="http://www.w3.org/2000/svg">
<mask id="mask0_62_2181" style="mask-type:luminance" maskUnits="userSpaceOnUse" x="192" y="187" width="461" height="470">
<path d="M206.372 187.814L192.444 586.63L638.214 656.773L652.142 257.957L206.372 187.814Z" fill="white"/>
</mask>
<g mask="url(#mask0_62_2181)">
<path d="M277.904 346.942C277.461 340.56 277.078 332.754 278.863 324.146C283.293 303.337 285.963 307.491 284.562 323.906C283.46 333.197 287.075 348.69 290.87 359.908L297.754 365.307C301.083 353.789 308.423 331.436 319.858 313.177C336.549 288.297 345.72 290.044 327.485 317.834C315.248 338.26 309.332 360.554 306.003 372.072L309.475 374.059L324.668 384.798C332.834 376.632 354.362 355.104 377.937 335.624C405.967 311.689 397.442 328.403 379.805 341.945C366.563 352.458 346.16 381.05 336.389 393.55L383.394 425.707C392.182 419.649 412.728 404.562 434.519 393.69C465.038 378.184 457.495 388.457 432.675 403.723C415.158 414.415 399.689 427.155 393.75 433.094L460.784 479.342C468.77 475.451 497.122 460.747 517.811 459.166C537.136 456.22 534.849 459.872 515.405 465.667C498.187 469.236 474.852 483.018 469.715 486.789L535.325 533.098L423.094 462.438C419.322 467.575 415.431 475.561 414.952 486.959C412.808 504.116 409.838 507.086 409.193 488.623C409.792 474.376 413.181 461.433 414.103 456.416L354.455 420.524C352.168 424.176 346.05 434.389 343.846 452.971C340.66 477.994 333.417 481.143 336.1 451.163C338.363 431.157 341.01 418.956 342.674 413.197L312.108 395.993C303.2 404.901 279.385 430.081 269.998 450.388C258.203 477.195 255.294 478.74 265.783 449.143C273.866 426.047 291.359 398.999 298.903 388.726L287.804 382.082C281.243 385.913 269.605 392.092 261.319 403.107C247.095 420.061 241.516 417.451 257.285 397.588C265.57 386.573 272.934 380.574 278.01 378.227C254.891 369.955 233.1 380.827 224.994 387.568C166.266 431.283 213.746 536.666 284.432 580.628C339.182 614.592 339.139 497.259 363.946 516.127C389.435 535.677 305.61 618.138 422.824 621.031C476.103 622.346 437.661 555.694 459.955 549.779C493.767 540.534 451.38 618.407 504.659 619.722C529.562 619.386 548.827 617.865 582.519 611.47C616.15 606.5 639.246 598.417 639.246 598.417C639.246 598.417 617.828 566.606 620.511 536.626C623.937 505.904 643.394 465.974 614.613 440.161C563.131 396.103 506.33 444.715 504.679 416.34C502.728 395.088 557.229 384.262 585.365 391.613C617.033 399.525 597.352 326.396 548.587 319.202C483.647 307.711 444.649 372.641 423.577 366.416C395.501 357.641 448.291 319.865 476.523 308.01C505.438 296.839 463.524 228.2 391.459 217.008C299.628 202.381 218.33 275.49 277.904 346.942Z" fill="#70825B" fill-opacity="0.3"/>
</g>
</svg>
