<svg width="357" height="515" viewBox="0 0 357 515" fill="none" xmlns="http://www.w3.org/2000/svg">
<path d="M330.31 378.948C329.529 384.078 328.45 390.316 325.563 396.663C319.195 411.57 316.764 407.359 321.134 395.476C324.318 388.022 323.558 375.358 322.61 365.611L318.261 359.699C314.375 367.558 304.092 383.789 292.08 395.404C274.857 410.963 268.105 407.374 287.028 389.897C300.039 376.77 309.215 360.242 313.101 352.383L310.778 349.98L301.674 337.454L252.025 363.311C225.539 375.795 235.041 364.694 250.997 358.289C263.038 353.209 284.473 335.218 293.489 328.141L262.965 291.481C255.135 294.13 236.667 301.048 217.983 304.349C191.765 309.19 199.377 302.923 221.167 296.895C237.232 292.299 250.677 286.408 256.292 283.166L213.53 230.174C205.997 231.716 181.588 236.449 165.386 232.701C149.588 229.655 151.991 227.332 168.382 228.163C182.558 228.402 202.647 224.291 207.263 222.561L164.907 170.271L238.866 252.983C242.672 249.85 246.667 243.8 249.446 235.644C254.113 222.654 257.217 219.926 254.171 235.724C251.204 246.796 247.022 255.762 244.728 259.894L284.327 302.545C287.432 299.817 293.235 293.659 298.199 279.562C305.754 260.225 311.181 259.9 303.844 282.854C298.583 298.058 294.401 307.024 292.107 311.156L312.608 332.077C321.032 327.214 343.79 313.138 354.587 299.417C368.379 281.159 370.485 279.943 357.612 301.415C347.329 317.646 329.108 334.718 321.495 340.985L328.869 348.894C334.593 347.461 344.638 345.406 352.952 338.734C366.882 328.819 370.718 332.22 355.087 344.052C346.772 350.725 340.752 353.265 335.73 354.293C352.07 366.384 370.755 363.084 378.179 359.733C431.071 339.492 413.057 245.07 366.38 193.402C330.211 153.45 309.61 245.832 293.834 224.991C277.653 203.448 356.675 158.761 266.963 128.196C226.886 113.897 244.053 176.051 225.853 175.328C198.202 174.446 244.117 122.667 203.744 109.476C184.516 103.731 169.421 100.279 143.065 96.7773C115.602 92.9788 96.4038 93.768 96.4038 93.768C96.4038 93.768 107.296 123.98 99.9582 146.935C91.9189 170.295 69.9205 197.034 88.2368 223.896C119.413 271.41 171.682 246.848 167.963 269.585C165.727 286.787 121.874 282.156 101.51 269.58C78.5261 255.708 80.8142 318.029 117.084 335.461C165.049 360.18 206.484 318.475 221.609 328.461C241.676 342.145 194.4 359.144 170.585 361.663C146.364 363.48 167.257 427.226 220.056 453.834C288.167 487.511 363.6 449.575 330.31 378.948Z" fill="#D0CAA2" fill-opacity="0.3"/>
</svg>
