<svg width="352" height="476" viewBox="0 0 352 476" fill="none" xmlns="http://www.w3.org/2000/svg">
<path d="M-1.69196 151.175C-2.22687 146.36 -2.76181 140.476 -1.69195 134.057C0.44775 119.079 3.65729 122.289 2.58743 134.057C1.51759 141.546 5.26206 152.779 8.4716 161.338L13.8208 165.618C15.4256 157.594 20.7749 140.476 28.7987 127.103C40.5671 108.916 47.5211 110.52 34.6829 130.847C26.1241 145.825 21.8447 162.943 20.2399 170.967L22.9146 172.572L34.148 181.665L72.6625 146.36C93.5246 128.708 87.6404 141.011 74.8022 150.64C65.1736 158.129 50.1957 179.526 43.7766 188.084L80.1515 213.761C86.5706 209.481 101.548 198.783 117.596 191.294C140.063 180.595 134.714 188.084 116.526 198.783C103.153 206.807 92.4547 215.365 88.1753 219.645L139.528 257.09C145.947 253.88 166.809 243.716 182.322 243.182C197.3 242.112 195.695 244.786 180.717 247.996C167.879 251.205 150.761 259.764 147.017 262.439L197.835 299.349L111.177 242.647C108.502 246.391 106.363 252.81 105.828 260.834C104.758 273.672 102.618 276.882 101.548 261.904C101.548 251.205 103.153 242.112 104.223 237.832L58.2196 208.946C56.0799 212.156 52.3354 219.11 51.2656 233.018C49.1259 252.275 44.3115 253.88 45.3814 231.413C46.4512 216.435 48.056 207.342 49.1259 203.062L25.5892 189.154C19.1701 195.573 2.0525 213.761 -4.36658 228.739C-12.3905 248.531 -13.9952 250.136 -7.57614 227.669C-2.22689 210.551 10.0764 190.759 15.4256 183.27L6.86683 177.921C2.05251 180.595 -6.50627 184.875 -12.3905 192.899C-22.554 205.202 -26.8334 203.062 -15.6 188.619C-9.71584 180.595 -4.9015 176.851 -0.622114 174.711C-18.2746 167.757 -34.3224 175.246 -40.2065 180.06C-83.0005 211.086 -43.951 291.86 10.6113 327.165C52.8703 354.446 49.1259 266.183 68.3831 281.161C88.1753 296.674 27.7289 356.051 115.991 361.935C155.576 365.144 125.085 313.257 141.668 309.512C166.809 303.628 137.923 361.4 177.508 363.54C196.23 364.074 210.673 363.54 235.28 360.33C260.956 357.12 278.074 351.771 278.074 351.771C278.074 351.771 260.956 327.165 262.026 304.698C263.631 281.696 277.004 252.275 254.002 232.483C214.418 197.178 173.228 231.948 171.089 210.551C168.949 194.503 209.603 188.084 231 194.503C255.072 201.457 237.954 145.825 201.044 138.871C151.831 128.173 124.55 175.781 108.502 170.432C87.1055 162.943 125.62 136.197 146.482 128.173C167.879 120.684 133.644 68.2613 79.6165 57.0279C10.0764 43.1198 -48.7653 95.5424 -1.69196 151.175Z" fill="#D0CAA2" fill-opacity="0.3"/>
</svg>
