<svg width="415" height="684" viewBox="0 0 415 684" fill="none" xmlns="http://www.w3.org/2000/svg">
<mask id="mask0_62_2176" style="mask-type:luminance" maskUnits="userSpaceOnUse" x="-137" y="110" width="441" height="463">
<path d="M-37.3911 110.66L-136.722 424.995L204.107 572.687L303.438 258.353L-37.3911 110.66Z" fill="white"/>
</mask>
<g mask="url(#mask0_62_2176)">
<path d="M-15.3994 251.973C-14.3421 246.806 -12.9218 240.519 -9.59171 234.04C-1.44801 218.402 -0.232576 222.257 -4.98297 235.024C-7.91843 242.186 -8.45467 255.254 -7.90196 264.959L-3.59295 270.673C1.61528 262.199 12.4263 245.932 25.605 233.767C44.4498 217.419 51.3945 220.7 30.6716 239.044C16.3724 252.767 6.7135 269.279 1.50527 277.754L3.84127 280.051L13.6115 291.724C21.9449 286.913 43.9148 274.229 67.0686 263.595C94.7679 250.336 84.2566 261.873 67.1635 269.008C54.2529 274.639 31.6203 293.174 21.0457 301.102L51.5085 336.369C59.8736 333.362 79.634 325.599 99.4577 321.444C127.283 315.403 118.982 322.019 95.7646 329.044C79.3975 333.937 64.2142 340.88 58.1535 344.38L101.512 394.984C108.756 393.536 134.672 387.686 151.56 390.694C167.659 392.335 165.024 394.768 148.199 395.368C133.647 394.657 111.945 400.808 107.005 402.749L149.211 453.107L75.1214 373.769C70.9705 377.077 66.0937 382.626 63.1898 391.593C57.6819 404.797 54.6515 406.547 58.2181 391.73C61.8479 380.521 67.4191 370.925 69.2656 367.125L29.5221 326.281C26.8863 328.714 19.7367 335.575 13.8658 349.901C5.78532 369.147 -0.701569 370.158 8.07322 346.866C14.3071 331.42 19.1208 322.262 21.7249 318.024L1.09552 298.039C-7.99548 303.288 -32.6012 318.405 -44.5961 332.621C-59.9526 351.511 -62.62 352.14 -47.6896 330.762C-36.121 314.058 -16.1557 296.152 -7.85386 289.537L-15.2564 281.964C-21.3488 283.658 -32.0182 286.173 -41.0776 293.226C-56.1977 303.779 -60.0804 300.552 -43.0822 288.005C-34.0228 280.952 -26.81 277.699 -22.2328 276.879C-38.8845 265.533 -58.7082 269.687 -66.6787 273.378C-123.293 296.04 -108.643 389.647 -61.8597 439.186C-25.6043 477.488 0.30897 384.155 15.9666 404.277C32.0189 425.082 -53.2252 473.386 39.8339 499.853C82.1334 511.883 66.1431 450.945 85.2725 450.836C114.345 450.454 63.2406 503.653 105.54 515.684C125.522 520.55 141.258 523.312 169.605 525.172C197.589 528.153 217.839 526.486 217.839 526.486C217.839 526.486 207.752 496.769 216.527 473.476C226.059 449.747 250.444 421.999 233.144 395.535C201.734 349.879 145.578 376.833 150.533 353.923C153.674 336.618 199.635 339.244 220.501 350.891C244.065 363.713 244.505 301.491 207.114 285.716C157.744 263.187 112.21 306.791 96.7422 297.495C76.2393 284.728 126.793 265.565 151.983 261.957C177.567 259.033 159.241 195.798 104.109 172.039C33.9358 141.473 -47.2206 182.861 -15.3994 251.973Z" fill="#70825B" fill-opacity="0.3"/>
</g>
</svg>
