<svg width="241" height="294" viewBox="0 0 241 294" fill="none" xmlns="http://www.w3.org/2000/svg">
<path d="M157.24 232.87C155.978 235.749 154.37 239.229 151.687 242.489C145.625 250.211 144.863 247.366 149.282 241.1C152.313 237.239 153.853 229.712 154.826 223.862L153.209 219.722C149.704 223.71 141.145 231.593 132.298 236.504C119.785 242.906 116.398 239.749 130.206 232.492C139.874 226.852 147.832 218.622 151.337 214.634L150.355 212.864L146.993 204.11L113.898 211.454C96.4485 214.605 103.746 209.6 114.084 208.355C121.924 207.27 137.281 200.106 143.665 197.38L131.555 171.151C126.56 171.474 114.673 172.626 103.227 171.628C87.1315 170.351 92.5668 167.878 106.257 167.767C116.375 167.597 125.163 166.258 128.956 165.242L112.248 127.542C107.6 127.263 92.5802 126.206 83.6899 121.474C74.9267 117.216 76.6961 116.234 86.1535 119.289C94.4086 121.651 106.804 122.395 109.775 122.107L93.1947 84.8808L123.493 144.855C126.211 143.619 129.495 140.706 132.399 136.371C137.165 129.504 139.409 128.395 135.151 137.158C131.68 143.17 127.828 147.759 125.839 149.816L142.317 180.972C144.561 179.862 148.921 177.17 154.034 169.702C161.484 159.575 164.709 160.235 156.82 172.512C151.359 180.581 147.508 185.171 145.518 187.228L154.232 202.679C159.921 201.154 175.44 196.488 183.906 190.154C194.835 181.636 196.258 181.255 185.362 191.797C176.803 199.68 163.469 206.81 158.034 209.282L161.107 215.065C164.68 215.124 170.878 215.496 176.787 212.896C186.49 209.28 188.2 211.871 177.202 216.342C171.293 218.942 167.373 219.484 164.274 219.298C171.937 228.932 183.384 229.93 188.252 229.134C222.364 225.583 226.626 167.528 207.42 129.989C192.525 100.95 165.996 151.76 160.034 137.097C153.945 121.959 207.173 108.205 159.487 76.2646C138.285 61.6194 138.585 100.667 128.052 97.3913C112.016 92.5414 146.99 69.4502 125.441 55.406C115.095 49.0316 106.805 44.6467 91.9377 38.4674C76.4687 31.941 65.1149 29.3936 65.1149 29.3936C65.1149 29.3936 66.7506 48.7733 58.8609 61.0505C50.497 73.4546 33.438 85.6479 39.9419 104.231C50.7311 136.911 85.1554 130.736 79.4162 143.453C75.4124 153.165 50.4861 143.583 40.5455 133.034C29.2755 121.318 20.846 158.131 39.3298 174.013C63.5121 195.99 94.2864 178.089 101.568 186.301C111.162 197.45 80.8434 199.984 66.5179 197.725C52.0653 194.992 54.2955 235.554 81.0094 259.394C115.572 289.769 165.643 279.401 157.24 232.87Z" fill="#D0CAA2" fill-opacity="0.3"/>
</svg>
