<svg width="468" height="612" viewBox="0 0 468 612" fill="none" xmlns="http://www.w3.org/2000/svg">
<mask id="mask0_177_10" style="mask-type:luminance" maskUnits="userSpaceOnUse" x="-193" y="-67" width="460" height="496">
<path d="M-192.449 -66.5835L-189.556 338.401L266.776 428.799L263.16 24.5379L-192.449 -66.5835Z" fill="white"/>
</mask>
<g mask="url(#mask0_177_10)">
<path d="M-112.896 98.3025C-113.619 91.7938 -114.343 83.8387 -112.896 75.1605C-110.004 54.9112 -105.664 59.2504 -107.111 75.1605C-108.557 85.2851 -103.495 100.472 -99.1557 112.043L-91.9238 117.829C-89.7543 106.981 -82.5224 83.8387 -71.6746 65.759C-55.7645 41.1707 -46.363 43.3402 -63.7195 70.8214C-75.2905 91.0706 -81.076 114.213 -83.2456 125.06L-79.6296 127.23L-64.4427 139.524L-12.3732 91.7938C15.8311 67.9286 7.87603 84.5619 -9.48047 97.5793C-22.4978 107.704 -42.7471 136.631 -51.4253 148.202L-2.2486 182.915C6.42965 177.13 26.6789 162.666 48.3745 152.542C78.7484 138.078 71.5165 148.202 46.9282 162.666C28.8485 173.514 14.3847 185.085 8.59921 190.87L78.0252 241.494C86.7035 237.154 114.908 223.414 135.88 222.691C156.129 221.244 153.96 224.86 133.711 229.199C116.354 233.539 93.2121 245.11 88.1498 248.725L156.853 298.625L39.6963 221.968C36.0803 227.03 33.1876 235.708 32.4644 246.556C31.018 263.912 28.1253 268.252 26.6789 248.002C26.6789 233.539 28.8485 221.244 30.2948 215.459L-31.8993 176.407C-34.792 180.746 -39.8543 190.147 -41.3007 208.95C-44.1935 234.985 -50.7022 237.154 -49.2558 206.781C-47.8094 186.531 -45.6398 174.237 -44.1935 168.452L-76.0137 149.649C-84.692 158.327 -107.834 182.915 -116.512 203.165C-127.36 229.923 -129.53 232.092 -120.851 201.718C-113.619 178.576 -96.9861 151.818 -89.7543 141.694L-101.325 134.462C-107.834 138.078 -119.405 143.863 -127.36 154.711C-141.101 171.344 -146.886 168.452 -131.699 148.926C-123.744 138.078 -117.235 133.015 -111.45 130.123C-135.315 120.721 -157.011 130.846 -164.966 137.355C-222.821 179.299 -170.028 288.501 -96.263 336.231C-39.1312 373.114 -44.1935 253.788 -18.1587 274.037C8.5992 295.009 -73.121 375.283 46.2049 383.238C99.7208 387.577 58.4991 317.428 80.918 312.366C114.908 304.411 75.8556 382.515 129.372 385.408C154.683 386.131 174.209 385.408 207.476 381.069C242.189 376.73 265.331 369.498 265.331 369.498C265.331 369.498 242.189 336.231 243.635 305.857C245.805 274.76 263.884 234.985 232.787 208.227C179.271 160.497 123.586 207.504 120.693 178.576C117.801 156.881 172.763 148.202 201.69 156.881C234.234 166.282 211.092 91.0706 161.192 81.6692C94.6585 67.2054 57.776 131.569 36.0803 124.337C7.15284 114.213 59.2223 78.0532 87.4266 67.2054C116.354 57.0808 70.0702 -13.7916 -2.97177 -28.9785C-96.9861 -47.7814 -176.537 23.091 -112.896 98.3025Z" fill="#FCBB6C" fill-opacity="0.4"/>
</g>
</svg>
