<svg width="533" height="626" viewBox="0 0 533 626" fill="none" xmlns="http://www.w3.org/2000/svg">
<path d="M333.645 160.874C339.977 160.171 347.717 159.467 356.16 160.874C375.861 163.689 371.639 167.91 356.16 166.503C346.309 165.096 331.534 170.021 320.276 174.243L314.648 181.279C325.202 183.389 347.717 190.425 365.307 200.979C389.229 216.458 387.118 225.605 360.381 208.719C340.681 197.461 318.166 191.833 307.612 189.722L305.501 193.24L293.54 208.015L339.977 258.674C363.196 286.115 347.013 278.375 334.348 261.489C324.498 248.824 296.354 229.123 285.096 220.68L251.324 268.525C256.953 276.968 271.025 296.669 280.875 317.776C294.947 347.328 285.096 340.292 271.025 316.369C260.471 298.779 249.213 284.707 243.584 279.079L194.332 346.624C198.554 355.067 211.922 382.507 212.626 402.912C214.033 422.612 210.515 420.502 206.294 400.801C202.072 383.915 190.814 361.4 187.296 356.474L138.748 423.316L213.33 309.333C208.404 305.815 199.961 303.001 189.407 302.297C172.521 300.89 168.299 298.076 188 296.669C202.072 296.669 214.033 298.779 219.662 300.187L257.656 239.677C253.435 236.863 244.288 231.938 225.994 230.53C200.665 227.716 198.554 221.384 228.105 222.791C247.806 224.198 259.767 226.309 265.396 227.716L283.689 196.758C275.246 188.315 251.324 165.799 231.623 157.356C205.59 146.802 203.479 144.691 233.03 153.135C255.545 160.171 281.579 176.353 291.429 183.389L298.465 172.132C294.947 165.799 289.318 154.542 278.764 146.802C262.581 133.434 265.396 127.805 284.393 142.581C294.947 150.32 299.872 156.653 302.686 162.281C311.833 139.063 301.983 117.955 295.65 110.215C254.842 53.9274 148.599 105.29 102.161 177.057C66.2777 232.641 182.371 227.716 162.671 253.045C142.266 279.079 64.1669 199.572 56.4273 315.666C52.2057 367.732 120.455 327.627 125.38 349.438C133.119 382.507 57.1309 344.513 54.3165 396.579C53.6129 421.205 54.3165 440.202 58.5381 472.568C62.7597 506.341 69.7957 528.856 69.7957 528.856C69.7957 528.856 102.161 506.341 131.712 507.748C161.967 509.859 200.665 527.449 226.698 497.194C273.135 445.128 227.401 390.951 255.545 388.136C276.653 385.322 285.096 438.795 276.653 466.939C267.507 498.601 340.681 476.086 349.827 427.538C363.899 362.807 301.279 326.923 308.315 305.815C318.166 277.671 353.345 328.33 363.899 355.771C373.75 383.915 442.702 338.884 457.478 267.821C475.771 176.353 406.819 98.9577 333.645 160.874Z" fill="#D0CAA2" fill-opacity="0.3"/>
</svg>
