<svg width="205" height="424" viewBox="0 0 205 424" fill="none" xmlns="http://www.w3.org/2000/svg">
<path d="M227.077 336.299C225.256 340.456 222.933 345.482 219.058 350.189C210.304 361.341 209.203 357.233 215.585 348.185C219.962 342.609 222.186 331.739 223.592 323.29L221.256 317.311C216.194 323.07 203.834 334.455 191.057 341.547C172.987 350.793 168.096 346.232 188.037 335.752C201.999 327.608 213.492 315.722 218.553 309.963L217.134 307.408L212.279 294.765L164.485 305.37C139.286 309.921 149.825 302.694 164.754 300.895C176.076 299.329 198.254 288.983 207.473 285.045L189.986 247.168C182.772 247.633 165.605 249.298 149.074 247.856C125.831 246.012 133.68 242.441 153.451 242.28C168.062 242.035 180.754 240.102 186.231 238.634L162.103 184.19C155.39 183.787 133.699 182.26 120.861 175.426C108.205 169.277 110.761 167.859 124.418 172.272C136.34 175.682 154.24 176.756 158.532 176.34L134.587 122.58L178.342 209.192C182.267 207.407 187.011 203.2 191.204 196.94C198.087 187.023 201.327 185.421 195.178 198.076C190.165 206.758 184.603 213.385 181.73 216.357L205.527 261.35C208.767 259.748 215.064 255.859 222.448 245.074C233.206 230.45 237.865 231.403 226.471 249.133C218.585 260.786 213.023 267.414 210.15 270.385L222.733 292.698C230.949 290.497 253.361 283.758 265.587 274.611C281.371 262.309 283.425 261.759 267.69 276.983C255.33 288.367 236.073 298.664 228.224 302.235L232.663 310.585C237.823 310.67 246.773 311.208 255.307 307.453C269.318 302.231 271.789 305.972 255.906 312.43C247.372 316.184 241.711 316.967 237.236 316.698C248.303 330.612 264.834 332.053 271.864 330.903C321.126 325.776 327.281 241.935 299.546 187.724C278.035 145.787 239.722 219.164 231.113 197.988C222.32 176.127 299.189 156.264 230.323 110.137C199.705 88.9876 200.137 145.378 184.927 140.648C161.768 133.644 212.275 100.296 181.156 80.0146C166.213 70.809 154.243 64.4765 132.772 55.5527C110.432 46.1277 94.0355 42.4488 94.0355 42.4488C94.0355 42.4488 96.3977 70.436 85.0038 88.166C72.9251 106.079 48.2894 123.688 57.682 150.526C73.2631 197.72 122.977 188.802 114.689 207.168C108.907 221.193 72.9094 207.355 58.5537 192.121C42.2782 175.201 30.1047 228.365 56.7981 251.3C91.7209 283.038 136.163 257.186 146.68 269.046C160.534 285.147 116.75 288.807 96.0616 285.544C75.19 281.597 78.4107 340.175 116.99 374.603C166.904 418.469 239.212 403.497 227.077 336.299Z" fill="#D0CAA2" fill-opacity="0.3"/>
</svg>
