<svg width="88" height="67" viewBox="0 0 88 67" fill="none" xmlns="http://www.w3.org/2000/svg">
<path d="M16.2956 29.1085C18.7202 27.5499 20.2788 25.6449 20.1056 23.5667C19.9325 20.4494 16.4688 18.0249 10.7538 18.3713L10.5807 18.5444C13.3516 11.444 18.2006 0.706761 22.0106 1.05312C24.0888 1.39949 25.4743 4.68993 26.167 7.46084L25.6474 8.84629L25.1279 11.6172C24.9547 12.1367 24.6084 13.1758 23.7424 14.2149L22.7034 15.6004C22.357 16.2931 22.0106 16.6395 22.0106 17.3322L21.8375 18.5444L21.6643 19.064L22.5302 19.2372C23.5693 19.064 24.4352 18.0249 24.6084 17.6785L25.3011 15.9467V17.5054L25.4743 19.5835C25.6474 19.7567 26.3402 21.3153 27.5524 21.3153C28.072 21.3153 28.5915 20.7958 28.9379 20.4494C29.6306 19.7567 29.8038 18.8908 29.8038 18.0249L29.977 16.2931C30.1502 16.2931 29.977 17.5054 30.4965 18.3713C31.0161 19.2372 31.882 19.7567 32.2283 19.5835C32.9211 19.064 31.5356 16.2931 31.1892 15.4272L29.4574 12.4831C28.4183 10.9245 27.8988 10.7513 27.8988 9.7122C27.7256 9.01947 28.072 8.49993 27.7256 7.8072L27.3793 7.46084C26.6865 4.68993 25.1279 0.360398 22.1838 0.0140349C18.547 -0.332328 14.3906 5.72902 9.36839 18.5444C2.26795 19.5835 0.0165909 23.3935 0.0165909 23.3935C-0.15659 24.0863 1.05568 25.2985 2.26795 25.2985C2.78749 25.1253 4.51931 24.2594 4.69249 23.9131V23.3935C5.5584 22.3544 6.94385 20.969 10.0611 20.7958C13.1784 20.6226 15.0834 22.1813 15.2566 24.0863C15.4297 26.1644 13.8711 27.7231 11.6197 28.7622H10.5807L11.6197 22.874C10.2343 22.1813 7.46339 21.8349 6.77067 23.5667C6.07794 25.2985 4.86567 32.7453 4.17295 38.8067L1.92159 38.1139C1.05568 39.4994 0.882498 40.8849 2.09477 41.5776L3.82658 41.9239V42.2703C4.17295 42.4435 6.25112 43.3094 7.63657 43.3094C8.3293 43.3094 8.84884 43.3094 9.02203 42.2703V41.9239H9.71475C15.6029 41.5776 21.6643 38.6335 21.3179 33.9576C21.1447 31.3599 19.0665 29.8012 16.2956 29.1085ZM9.36839 39.153L10.2343 31.5331C13.1784 31.1867 15.4297 32.2258 15.6029 34.304C15.9493 37.5944 12.3125 38.8067 9.36839 39.153Z" fill="#481B02"/>
<path d="M29.9768 34.304C29.6304 35.3431 28.9377 36.5554 28.0718 36.7285C27.7254 36.7285 27.379 36.209 27.379 35.3431C27.2059 33.4381 28.4181 28.2426 28.7645 25.9913C29.284 24.4327 25.474 24.0863 24.6081 24.0863L23.7422 24.4327C23.0495 26.684 21.6641 33.2649 21.8372 35.8626C22.0104 38.8067 23.9154 40.019 26.6863 39.8458C28.4181 39.6726 29.9768 38.8067 31.189 37.7676C32.5745 39.4994 35.1722 40.1922 37.4236 40.019C40.8872 39.8458 42.9654 37.7676 43.8313 35.8626C45.0435 37.2481 47.1217 37.9408 49.8926 37.7676C55.4344 37.4213 56.8199 29.1086 56.4735 26.5108C56.3003 23.7399 53.7026 21.3154 51.1049 21.4886C49.5463 21.6618 48.6804 22.7008 47.8144 24.2595C48.1608 22.3545 49.3731 17.8518 49.8926 16.6395C49.7194 15.7736 47.1217 14.9077 45.7363 15.254C44.8704 15.4272 42.0995 26.5108 42.4458 31.8795H41.5799L40.8872 32.2258C40.714 33.7845 39.1554 37.0749 36.5577 37.4213C35.3454 37.4213 34.6527 36.9017 34.6527 35.3431C34.4795 33.4381 34.999 31.8795 34.999 31.8795C34.999 31.8795 35.8649 33.0917 37.5967 32.9185C39.5017 32.9185 41.5799 29.8013 41.2336 25.9913C41.0604 22.7008 37.7699 21.6618 36.0381 21.8349C31.8818 22.1813 29.6304 28.9354 29.8036 34.304M47.4681 30.1476L47.9876 30.3208H48.334C48.334 28.589 49.5463 24.2595 50.9317 24.0863C51.6244 24.0863 51.6244 24.779 51.6244 25.6449C51.6244 25.9913 51.2781 34.6504 48.5072 34.8235C47.8144 34.8235 47.2949 34.1308 47.2949 33.0917L47.4681 30.1476ZM36.5577 24.9522L36.904 24.4327C37.0772 24.4327 37.2504 24.4327 37.2504 25.6449C37.4236 27.5499 36.904 30.3208 35.8649 30.494C35.3454 30.494 35.1722 29.8013 35.1722 29.8013C35.3454 28.2426 36.0381 26.3377 36.5577 24.9522ZM59.764 43.1362C60.6299 43.1362 61.3226 42.7899 61.8421 42.2703C62.1885 42.7899 62.5349 43.1362 63.2276 42.9631C63.9203 42.9631 64.2667 42.6167 64.2667 42.6167C64.2667 41.4044 64.9594 39.3263 65.479 38.2872H65.6521L65.3058 40.7117C65.3058 41.7508 65.8253 42.7899 67.7303 42.6167C69.2889 42.6167 70.1549 41.0581 70.1549 40.3653C70.1549 39.4994 68.9426 39.6726 68.9426 39.6726C68.9426 40.019 68.5962 41.2313 68.0767 41.2313C67.7303 41.2313 67.5571 41.0581 67.5571 40.3653C67.3839 38.8067 68.2499 36.5554 68.2499 34.9967C68.423 34.4772 66.8644 34.1308 66.1717 34.1308C65.8253 34.1308 65.6521 34.304 65.6521 34.4772L63.9203 38.9799L64.2667 35.1699C64.4399 34.8235 63.574 34.6504 63.0544 34.6504C62.1885 34.8235 61.669 37.0749 61.669 39.6726H61.4958C61.4958 40.1922 61.1494 41.5776 60.4567 41.7508L60.1103 41.0581C59.9371 40.019 60.6299 37.4213 60.8031 36.3822C60.9762 35.5163 59.0712 35.3431 58.7249 35.3431L58.3785 35.5163C57.859 36.7285 57.1662 40.019 57.3394 41.2313C57.3394 42.6167 58.3785 43.3094 59.764 43.1362ZM59.764 34.6504C61.3226 34.4772 61.8421 33.4381 61.8421 32.7454C61.8421 32.399 61.3226 32.2258 60.9762 32.0526C61.1494 31.5331 60.6299 31.3599 59.9371 31.5331C58.7249 31.5331 58.3785 33.0917 58.5517 33.6113C58.5517 34.304 59.2444 34.6504 59.764 34.6504ZM37.7699 52.1417C40.1945 50.5831 41.9263 48.6781 41.7531 46.5999C41.4067 43.4826 38.1163 41.0581 32.2281 41.4044C24.2618 42.0972 21.6641 46.4267 21.6641 46.4267C21.4909 47.1194 22.7031 48.3317 23.9154 48.3317L26.34 46.9462V46.4267C27.2059 45.3876 28.5913 44.0022 31.7086 43.829C34.8258 43.6558 36.7308 45.2144 36.7308 47.1194C36.904 49.1976 35.5186 50.7562 33.094 51.7953H32.2281L33.094 45.9072C31.8818 45.2144 29.1109 44.8681 28.2449 46.5999C27.7254 48.3317 26.5131 55.7785 25.8204 61.8398L23.3959 61.1471C22.53 62.5326 22.3568 63.918 23.7422 64.6107L25.474 64.9571V65.3035C25.6472 65.4767 27.8986 66.3426 29.284 66.3426C29.9768 66.3426 30.4963 66.1694 30.6695 65.3035V64.9571H31.3622C37.2504 64.6107 43.3117 61.6667 42.9654 56.9908C42.7922 54.393 40.714 52.8344 37.7699 52.1417ZM30.8427 62.1862L31.8818 54.5662C34.6527 54.2199 37.0772 55.2589 37.2504 57.3371C37.5967 60.6276 33.9599 61.8398 30.8427 62.1862ZM47.1217 39.4994L46.429 39.8458C45.2167 45.0412 44.0045 54.5662 44.0045 59.2421C44.0045 60.108 43.8313 61.4935 44.1776 61.8398C44.3508 62.3594 48.5072 63.3985 49.0267 62.8789V60.4544C49.1999 54.0467 50.0658 47.2926 51.2781 40.8849C51.2781 40.3653 48.1608 39.4994 47.1217 39.4994ZM58.5517 45.5608C57.5126 45.5608 56.9931 46.0803 56.9931 46.0803C56.8199 45.734 56.3003 45.5608 55.7808 45.3876C52.8367 46.0803 50.239 51.2758 50.4122 55.2589C50.4122 58.5494 52.4903 62.5326 57.3394 62.1862C63.4008 61.6667 64.613 54.393 64.613 51.1026C64.4399 47.9853 63.4008 45.2144 58.5517 45.5608ZM59.9371 50.5831C59.764 51.9685 59.0712 59.0689 56.8199 59.2421C55.6076 59.2421 55.0881 57.6835 55.2612 55.7785L55.4344 54.0467L56.1272 54.2199C56.3003 52.6612 57.5126 48.1585 58.8981 47.9853C59.9371 47.9853 59.9371 49.7171 59.9371 50.5831Z" fill="#481B02"/>
<path d="M85.2218 53.1808C85.2218 54.2199 84.5291 57.164 83.1436 57.164C82.7972 57.3372 82.4509 56.8176 82.4509 55.7785C82.2777 53.8735 83.49 48.8513 84.0095 46.5999C84.3559 45.0413 80.5459 44.5217 79.68 44.5217C79.3336 44.6949 78.9873 44.6949 78.8141 45.0413C78.2945 46.5999 77.4286 50.9295 76.9091 53.8735H76.2163L75.5236 54.2199C75.3504 55.9517 73.7918 59.2422 71.0209 59.4153C69.9818 59.4153 69.2891 58.8958 69.2891 57.5103C69.1159 55.4322 69.6355 53.8735 69.6355 53.8735C69.6355 54.0467 70.5014 55.259 72.2332 55.0858C74.1382 54.9126 76.2163 51.7954 75.87 47.9854C75.6968 44.8681 72.4064 43.829 70.6745 43.829C66.345 44.1754 64.0936 51.6222 64.6132 56.9908C64.7864 60.6276 68.5964 62.3594 72.06 62.1862C74.8309 61.8399 76.7359 60.6276 77.775 59.069C78.6409 59.9349 80.0263 60.4544 81.7582 60.2813C85.2218 60.1081 88.1659 57.164 87.9927 55.0858C87.8195 53.0076 85.2218 53.1808 85.2218 53.1808ZM71.1941 46.9463L71.5405 46.4267C71.7136 46.4267 71.8868 46.5999 71.8868 47.639C72.06 49.544 71.5405 52.3149 70.5014 52.4881C69.9818 52.4881 69.8086 51.9685 69.8086 51.9685C69.9818 50.4099 70.6745 48.3317 71.1941 46.9463ZM81.7582 42.9631C85.0486 42.7899 86.0877 40.5386 85.9145 39.4995C85.9145 38.4604 85.0486 38.2872 84.1827 37.9408C84.5291 36.9018 83.6632 36.7286 82.2777 36.7286C79.68 36.9018 79.1604 40.019 79.3336 41.0581C79.3336 42.6167 80.8922 43.1363 81.7582 42.9631Z" fill="#481B02"/>
</svg>
